<svg width="16" height="14" viewBox="0 0 16 14" fill="none" xmlns="http://www.w3.org/2000/svg">
<path fill-rule="evenodd" clip-rule="evenodd" d="M16 7C16 7.41421 15.6642 7.75 15.25 7.75L2.61208 7.75L7.76983 12.7094C8.06841 12.9965 8.07772 13.4713 7.79062 13.7698C7.50353 14.0684 7.02875 14.0777 6.73017 13.7906L0.230168 7.54062C0.0831095 7.39922 -3.14897e-07 7.20401 -3.0598e-07 7C-2.97062e-07 6.79599 0.0831096 6.60078 0.230168 6.45938L6.73017 0.209376C7.02875 -0.0777193 7.50353 -0.0684098 7.79062 0.230169C8.07772 0.528748 8.06841 1.00353 7.76983 1.29063L2.61208 6.25L15.25 6.25C15.6642 6.25 16 6.58579 16 7Z" fill="white"/>
</svg>
